<svg width="36" height="36" viewBox="0 0 36 36" fill="none" xmlns="http://www.w3.org/2000/svg">
<rect width="36" height="36" rx="18" fill="#8C2D27"/>
<path d="M11.0951 10.54C11.0202 10.5034 10.9359 10.4902 10.8534 10.5022C10.7708 10.5142 10.6938 10.5508 10.6324 10.6072C10.571 10.6636 10.5279 10.7372 10.5089 10.8184C10.49 10.8996 10.4959 10.9847 10.5259 11.0625L12.8951 17.4183C13.0348 17.7935 13.0348 18.2065 12.8951 18.5817L10.5268 24.9375C10.4969 25.0152 10.491 25.1001 10.51 25.1812C10.529 25.2622 10.5719 25.3357 10.6332 25.3921C10.6945 25.4484 10.7713 25.485 10.8537 25.4971C10.9361 25.5093 11.0202 25.4963 11.0951 25.46L26.0951 18.3767C26.1665 18.3429 26.2268 18.2896 26.269 18.2229C26.3112 18.1562 26.3336 18.0789 26.3336 18C26.3336 17.9211 26.3112 17.8438 26.269 17.7771C26.2268 17.7104 26.1665 17.6571 26.0951 17.6233L11.0951 10.54Z" stroke="#F9F9F9" stroke-width="1.25" stroke-linecap="round" stroke-linejoin="round"/>
<path d="M13 18H26.3333" stroke="#F9F9F9" stroke-width="1.25" stroke-linecap="round" stroke-linejoin="round"/>
</svg>
